@startuml ハンバーガーショップ
class 注文{
    数量
    小計
}
class 注文明細{
    合計
}
class 割引クーポン{
    値引額
    期限
}

class カップ{
    サイズ
}

class ドリンク{
    種別
}
class 商品{
    名称
    単価
}

class フード{
}
    

class ハンバーガー{
    種別   
}

class 材料{
    
}
class レシピ{
   
}
class ポテト{
    サイズ
}
class パン{

}
class 肉{

}
class 野菜{

}
class チーズ{
}

注文明細 "1.." o-ri- "*" 注文
注文 "0..*" -ri- "0..1" 割引クーポン
注文 "0..*" -down- "1" 商品
カップ "1..3" -ri- "0..*" ドリンク
ドリンク -ri-|> 商品
フード -up-|> 商品
フード "1" -ri- "1" レシピ
ハンバーガー -up-|> フード
ポテト -up-|> フード
材料 "1..*" -ri-o "1..*" ハンバーガー
パン -up-|> 材料
肉 -up-|> 材料
野菜 -up-|> 材料
チーズ -up-|> 材料
hide circle 
@enduml